<?xml version="1.0" standalone="no"?>
<!DOCTYPE svg PUBLIC "-//W3C//DTD SVG 20010904//EN"
 "http://www.w3.org/TR/2001/REC-SVG-20010904/DTD/svg10.dtd">
<svg version="1.0" xmlns="http://www.w3.org/2000/svg"
 width="1024.000000pt" height="1024.000000pt" viewBox="0 0 1024.000000 1024.000000"
 preserveAspectRatio="xMidYMid meet">

<g transform="translate(0.000000,1024.000000) scale(0.100000,-0.100000)"
fill="#000000" stroke="none">
<path d="M3180 8086 c-239 -53 -452 -191 -604 -389 -158 -207 -225 -430 -213
-707 4 -80 14 -167 25 -214 l20 -79 -60 -71 c-71 -84 -165 -239 -209 -345 -82
-196 -121 -462 -101 -680 20 -213 66 -370 164 -563 80 -159 160 -269 306 -419
l123 -128 -34 -48 c-102 -142 -144 -305 -125 -477 10 -96 47 -191 104 -273 24
-34 44 -64 44 -66 0 -3 -32 -36 -71 -74 -231 -221 -396 -515 -484 -857 -41
-162 -67 -331 -68 -457 -2 -91 -1 -97 27 -133 36 -48 79 -66 154 -66 l59 0 7
133 c8 171 28 301 70 462 83 313 226 566 439 773 l86 83 30 -16 c101 -52 354
-125 621 -180 210 -44 257 -43 303 4 29 28 32 38 32 90 0 49 -4 64 -25 86 -34
37 -47 41 -223 70 -184 31 -369 75 -497 116 -195 63 -279 119 -327 217 -25 51
-28 67 -27 157 0 110 16 164 74 255 l31 49 107 -73 c297 -202 637 -352 1325
-586 l97 -33 0 -444 0 -443 -29 -53 c-16 -28 -32 -73 -36 -98 -19 -132 84
-241 214 -226 147 17 215 168 141 313 l-30 59 0 398 0 398 68 -37 c119 -66
226 -140 293 -201 79 -74 96 -83 153 -83 43 0 51 5 117 65 39 36 99 85 133
110 65 46 218 135 232 135 5 0 7 -181 4 -402 l-5 -403 -28 -49 c-47 -86 -34
-190 33 -249 119 -108 302 -46 326 111 9 57 -8 125 -42 169 l-24 32 0 449 0
448 58 18 c133 42 499 172 652 232 246 97 483 218 660 336 85 56 158 104 161
106 12 5 68 -96 90 -160 30 -89 29 -216 -1 -286 -67 -155 -326 -263 -826 -347
-87 -14 -174 -33 -192 -40 -92 -41 -96 -193 -7 -231 51 -21 79 -18 320 31 230
46 390 92 528 151 l82 35 96 -99 c280 -288 445 -664 489 -1111 5 -57 10 -134
10 -172 l0 -69 58 0 c73 0 139 31 167 80 17 29 20 50 17 129 -7 269 -105 639
-234 881 -74 141 -170 272 -281 386 l-109 113 42 56 c159 215 159 491 0 732
l-47 72 101 103 c270 273 432 585 481 923 57 392 -54 806 -298 1108 -41 51
-56 78 -52 92 3 11 13 45 21 75 26 86 31 365 9 471 -43 213 -126 376 -270 528
-132 139 -289 235 -460 282 -103 27 -326 37 -429 19 -140 -25 -281 -82 -401
-163 -122 -82 -267 -241 -324 -355 -19 -37 -26 -43 -44 -37 -480 147 -1144
151 -1601 10 -27 -8 -52 -15 -56 -15 -4 0 -33 41 -65 91 -154 242 -397 411
-673 465 -88 17 -295 17 -372 0z m310 -257 c86 -14 189 -50 258 -91 127 -75
285 -258 329 -381 24 -66 68 -113 116 -122 31 -6 57 0 140 33 111 43 270 84
412 104 142 20 672 17 800 -5 135 -24 307 -70 380 -103 75 -34 134 -36 172 -8
16 12 51 66 83 128 114 222 293 373 510 432 90 25 291 25 380 1 294 -80 510
-326 560 -640 18 -112 8 -280 -24 -392 -41 -143 -38 -159 42 -257 163 -198
239 -349 288 -573 26 -119 24 -339 -5 -473 -109 -516 -511 -933 -1208 -1251
-183 -84 -346 -147 -733 -284 -327 -116 -428 -156 -563 -223 -84 -42 -214
-123 -277 -173 l-26 -20 -49 38 c-83 63 -221 141 -354 202 -133 60 -200 86
-586 224 -623 224 -929 371 -1199 574 -347 261 -570 599 -631 955 -60 355 42
713 284 994 94 110 95 112 54 265 -24 89 -27 120 -27 242 1 167 20 252 88 390
151 305 459 467 786 414z"/>
<path d="M3323 7343 c-56 -19 -132 -89 -165 -150 -45 -82 -62 -158 -62 -268 1
-159 43 -274 132 -357 63 -59 108 -78 186 -78 183 0 326 189 326 430 -1 296
-202 500 -417 423z"/>
<path d="M6760 7351 c-182 -56 -288 -305 -235 -554 30 -142 94 -235 193 -284
160 -78 327 15 404 223 32 88 32 273 0 366 -65 188 -217 293 -362 249z"/>
<path d="M4651 6034 c-26 -33 -28 -102 -4 -151 24 -51 86 -93 137 -93 52 0 81
20 96 64 14 44 -1 103 -37 147 -53 63 -155 80 -192 33z"/>
<path d="M5449 6037 c-118 -79 -116 -247 3 -247 87 0 168 82 168 171 0 37 -23
84 -45 93 -35 13 -93 6 -126 -17z"/>
<path d="M3584 5771 c-39 -24 -58 -70 -51 -123 7 -50 54 -101 170 -184 276
-200 662 -341 1077 -395 163 -21 488 -26 630 -9 315 37 586 114 845 240 225
109 423 253 455 330 19 45 5 93 -36 129 -28 25 -43 31 -82 31 -44 0 -54 -5
-127 -65 -246 -202 -603 -345 -1000 -401 -146 -21 -503 -24 -650 -5 -260 32
-496 98 -702 196 -118 56 -267 147 -318 195 -85 80 -150 98 -211 61z"/>
</g>
</svg>
